
    <svg
      width="151"
      height="85"
      viewBox="0 0 151 85"
      fill="none"
      xmlns="http://www.w3.org/2000/svg"
    >
      <path
        d="M10.9773 56.3264V71.2582H2.64205V36.3491H10.7045V49.8832H10.9943C11.5852 48.2696 12.5511 47.0082 13.892 46.0991C15.2443 45.19 16.8977 44.7355 18.8523 44.7355C20.6932 44.7355 22.2955 45.1446 23.6591 45.9628C25.0227 46.7696 26.0795 47.9116 26.8295 49.3889C27.5909 50.8662 27.9659 52.5934 27.9545 54.5707V71.2582H19.6193V56.2071C19.6307 54.7525 19.267 53.6162 18.5284 52.798C17.7898 51.9798 16.75 51.5707 15.4091 51.5707C14.5341 51.5707 13.7614 51.7639 13.0909 52.1503C12.4318 52.5253 11.9148 53.065 11.5398 53.7696C11.1761 54.4741 10.9886 55.3264 10.9773 56.3264ZM40.5384 71.7014C38.8679 71.7014 37.3849 71.423 36.0895 70.8662C34.8054 70.298 33.7884 69.4457 33.0384 68.3093C32.2997 67.1616 31.9304 65.7241 31.9304 63.9968C31.9304 62.5423 32.1861 61.315 32.6974 60.315C33.2088 59.315 33.9134 58.5025 34.8111 57.8775C35.7088 57.2525 36.7429 56.7809 37.9134 56.4628C39.0838 56.1332 40.3338 55.9116 41.6634 55.798C43.152 55.6616 44.3509 55.5196 45.2599 55.3718C46.169 55.2128 46.8281 54.9912 47.2372 54.7071C47.6577 54.4116 47.8679 53.9968 47.8679 53.4628V53.3775C47.8679 52.5025 47.5668 51.8264 46.9645 51.3491C46.3622 50.8718 45.5497 50.6332 44.527 50.6332C43.4247 50.6332 42.5384 50.8718 41.8679 51.3491C41.1974 51.8264 40.7713 52.4855 40.5895 53.3264L32.902 53.0537C33.1293 51.4628 33.7145 50.0423 34.6577 48.7923C35.6122 47.5309 36.919 46.5423 38.5781 45.8264C40.2486 45.0991 42.2543 44.7355 44.5952 44.7355C46.2656 44.7355 47.8054 44.9343 49.2145 45.3321C50.6236 45.7184 51.8509 46.2866 52.8963 47.0366C53.9418 47.7753 54.7486 48.6843 55.3168 49.7639C55.8963 50.8434 56.1861 52.0764 56.1861 53.4628V71.2582H48.3452V67.6105H48.1406C47.6747 68.4968 47.0781 69.2468 46.3509 69.8605C45.6349 70.4741 44.7884 70.9343 43.8111 71.2412C42.8452 71.548 41.7543 71.7014 40.5384 71.7014ZM43.1122 66.2468C44.0099 66.2468 44.8168 66.065 45.5327 65.7014C46.2599 65.3378 46.8395 64.8378 47.2713 64.2014C47.7031 63.5537 47.919 62.8037 47.919 61.9514V59.4628C47.6804 59.5878 47.3906 59.7014 47.0497 59.8037C46.7202 59.9059 46.3565 60.0025 45.9588 60.0934C45.5611 60.1843 45.152 60.2639 44.7315 60.3321C44.3111 60.4003 43.9077 60.4628 43.5213 60.5196C42.7372 60.6446 42.0668 60.8378 41.5099 61.0991C40.9645 61.3605 40.544 61.7014 40.2486 62.1218C39.9645 62.5309 39.8224 63.0196 39.8224 63.5878C39.8224 64.4514 40.1293 65.1105 40.7429 65.565C41.3679 66.0196 42.1577 66.2468 43.1122 66.2468ZM61.2827 71.2582V36.3491H69.6179V49.5593H69.7884C70.1293 48.7639 70.6122 47.9968 71.2372 47.2582C71.8736 46.5196 72.6804 45.9173 73.6577 45.4514C74.6463 44.9741 75.8281 44.7355 77.2031 44.7355C79.0213 44.7355 80.7202 45.2128 82.2997 46.1673C83.8906 47.1218 85.1747 48.5934 86.152 50.5821C87.1293 52.5707 87.6179 55.1048 87.6179 58.1843C87.6179 61.1503 87.1463 63.6332 86.2031 65.6332C85.2713 67.6332 84.0099 69.1332 82.419 70.1332C80.8395 71.1332 79.0838 71.6332 77.152 71.6332C75.8338 71.6332 74.6918 71.4173 73.7259 70.9855C72.7599 70.5537 71.9474 69.9855 71.2884 69.2809C70.6406 68.5764 70.1406 67.8207 69.7884 67.0139H69.5327V71.2582H61.2827ZM69.4474 58.1673C69.4474 59.5764 69.6349 60.8037 70.0099 61.8491C70.3963 62.8946 70.9474 63.7071 71.6634 64.2866C72.3906 64.8548 73.2599 65.1389 74.2713 65.1389C75.294 65.1389 76.1634 64.8548 76.8793 64.2866C77.5952 63.7071 78.1349 62.8946 78.4986 61.8491C78.8736 60.8037 79.0611 59.5764 79.0611 58.1673C79.0611 56.7582 78.8736 55.5366 78.4986 54.5025C78.1349 53.4684 77.5952 52.6673 76.8793 52.0991C76.1747 51.5309 75.3054 51.2468 74.2713 51.2468C73.2486 51.2468 72.3793 51.5253 71.6634 52.0821C70.9474 52.6389 70.3963 53.4343 70.0099 54.4684C69.6349 55.5025 69.4474 56.7355 69.4474 58.1673ZM91.9858 71.2582V45.0764H100.321V71.2582H91.9858ZM96.1619 42.0253C94.9915 42.0253 93.9858 41.6389 93.1449 40.8662C92.304 40.0821 91.8835 39.1389 91.8835 38.0366C91.8835 36.9457 92.304 36.0139 93.1449 35.2412C93.9858 34.4571 94.9915 34.065 96.1619 34.065C97.3438 34.065 98.3494 34.4571 99.179 35.2412C100.02 36.0139 100.44 36.9457 100.44 38.0366C100.44 39.1389 100.02 40.0821 99.179 40.8662C98.3494 41.6389 97.3438 42.0253 96.1619 42.0253ZM120.405 45.0764V51.2128H103.888V45.0764H120.405ZM107.348 38.8037H115.683V63.0253C115.683 63.5366 115.763 63.9514 115.922 64.2696C116.092 64.5764 116.337 64.798 116.655 64.9343C116.973 65.0593 117.354 65.1218 117.797 65.1218C118.115 65.1218 118.45 65.0934 118.803 65.0366C119.166 64.9684 119.439 64.9116 119.621 64.8662L120.882 70.8832C120.484 70.9968 119.922 71.1389 119.195 71.3093C118.479 71.4798 117.621 71.5878 116.621 71.6332C114.666 71.7241 112.99 71.4968 111.592 70.9514C110.206 70.3946 109.143 69.5309 108.405 68.3605C107.678 67.19 107.325 65.7184 107.348 63.9457V38.8037ZM147.188 53.0707L139.534 53.2753C139.455 52.7298 139.239 52.2468 138.886 51.8264C138.534 51.3946 138.074 51.0593 137.506 50.8207C136.949 50.5707 136.301 50.4457 135.562 50.4457C134.597 50.4457 133.773 50.6389 133.091 51.0253C132.42 51.4116 132.091 51.9343 132.102 52.5934C132.091 53.1048 132.295 53.548 132.716 53.923C133.148 54.298 133.915 54.5991 135.017 54.8264L140.062 55.7809C142.676 56.2809 144.619 57.1105 145.892 58.2696C147.176 59.4287 147.824 60.9628 147.835 62.8718C147.824 64.6673 147.29 66.2298 146.233 67.5593C145.188 68.8889 143.756 69.923 141.938 70.6616C140.119 71.3889 138.04 71.7525 135.699 71.7525C131.96 71.7525 129.011 70.9855 126.852 69.4514C124.705 67.9059 123.477 65.8378 123.17 63.2468L131.403 63.0423C131.585 63.9968 132.057 64.7241 132.818 65.2241C133.58 65.7241 134.551 65.9741 135.733 65.9741C136.801 65.9741 137.67 65.7753 138.341 65.3775C139.011 64.9798 139.352 64.4514 139.364 63.7923C139.352 63.2014 139.091 62.7298 138.58 62.3775C138.068 62.0139 137.267 61.7298 136.176 61.5253L131.608 60.6559C128.983 60.1787 127.028 59.298 125.744 58.0139C124.46 56.7184 123.824 55.0707 123.835 53.0707C123.824 51.3207 124.29 49.8264 125.233 48.5878C126.176 47.3378 127.517 46.3832 129.256 45.7241C130.994 45.065 133.045 44.7355 135.409 44.7355C138.955 44.7355 141.75 45.4798 143.795 46.9684C145.841 48.4457 146.972 50.4798 147.188 53.0707Z"
        fill="white"
      />
      <rect
        x="0.5"
        y="0.758209"
        width="15"
        height="15"
        rx="3.5"
        fill="#18181B"
        stroke="#27272A"
      />
      <rect
        x="20.5"
        y="0.758209"
        width="15"
        height="15"
        rx="3.5"
        fill="#4C1D95"
        stroke="#6D28D9"
      />
      <rect
        x="40.5"
        y="0.758209"
        width="15"
        height="15"
        rx="3.5"
        fill="#5B21B6"
        stroke="#7C3AED"
      />
      <rect
        x="60.5"
        y="0.758209"
        width="15"
        height="15"
        rx="3.5"
        fill="#6D28D9"
        stroke="#8B5CF6"
      />
      <rect
        x="80.5"
        y="0.758209"
        width="15"
        height="15"
        rx="3.5"
        fill="#7C3AED"
        stroke="#A78BFA"
      />
      <rect
        x="100.5"
        y="0.758209"
        width="15"
        height="15"
        rx="3.5"
        fill="#8B5CF6"
        stroke="#C4B5FD"
      />
    </svg>
    